<?xml version="1.0" encoding="UTF-8" standalone="no"?>
<!DOCTYPE svg PUBLIC "-//W3C//DTD SVG 1.1//EN" "http://www.w3.org/Graphics/SVG/1.1/DTD/svg11.dtd">
<svg width="100%" height="100%" viewBox="0 0 1000 1000" version="1.1" xmlns="http://www.w3.org/2000/svg" xmlns:xlink="http://www.w3.org/1999/xlink" xml:space="preserve" xmlns:serif="http://www.serif.com/" style="fill-rule:evenodd;clip-rule:evenodd;stroke-linejoin:round;stroke-miterlimit:2;">
    <g transform="matrix(1,0,0,1,-22.8101,-11.9276)">
        <g transform="matrix(1.14679,0,0,1.14679,-16.7512,-143.173)">
            <path d="M845.843,152.688C857.304,152.688 868.296,157.241 876.401,165.345C884.505,173.45 889.058,184.442 889.058,195.903L889.058,946.593C889.058,958.055 884.505,969.047 876.401,977.151C868.296,985.256 857.304,989.809 845.843,989.809L95.153,989.809C83.691,989.809 72.699,985.256 64.595,977.151C56.491,969.047 51.938,958.055 51.938,946.593L51.938,195.903C51.938,184.442 56.491,173.45 64.595,165.345C72.699,157.241 83.691,152.688 95.153,152.688L845.843,152.688Z" style="fill:url(#_Linear1);"/>
        </g>
        <g transform="matrix(1.14679,0,0,1.14679,-63.0638,-61.4664)">
            <g transform="matrix(0.726621,0,0,0.602322,1.43094,258.481)">
                <text x="508.368px" y="539.139px" style="font-family:'DINCondensed-Bold', 'DIN Condensed';font-weight:700;font-stretch:condensed;font-size:123.873px;fill:rgb(255,102,0);">JAMPLA<tspan x="808.759px 849.885px " y="539.139px 539.139px ">TE</tspan></text>
            </g>
            <g transform="matrix(0.786249,0,0,0.251871,108.038,435.706)">
                <rect x="214.348" y="271.148" width="593.069" height="48.21" style="fill:rgb(255,102,0);"/>
            </g>
            <g transform="matrix(0.786249,0,0,0.251871,99.4821,536.849)">
                <rect x="214.348" y="271.148" width="593.069" height="48.21" style="fill:rgb(255,102,0);"/>
            </g>
            <g transform="matrix(-1,0,0,0.966333,1019.27,24.8191)">
                <path d="M326.743,377.003L339.639,377.003C354.468,319.512 398.101,273.416 454.346,254.787L454.21,301.87L571.051,302.622L570.881,257.636C623.265,277.836 663.511,322.252 677.634,377.003L690.53,377.003L691.155,375.997C671.156,294.163 597.07,233.214 508.649,232.601L508.636,232.596L508.621,232.601C420.201,233.215 346.117,294.164 326.117,375.997L326.743,377.003ZM576.649,377.003L588.896,377.003L588.359,312.535L576.055,312.535L576.649,377.003ZM560.991,377.003L570.009,377.003L569.416,312.535L560.397,312.535L560.991,377.003ZM435.896,377.003L548.198,377.003L547.604,312.535L435.359,312.535L435.896,377.003ZM544.946,249.875L544.946,296.562L527.515,296.562L527.515,247.002C533.419,247.674 539.234,248.636 544.946,249.875ZM560.157,253.895L560.157,296.562L552.27,296.562L552.27,251.628C554.924,252.324 557.554,253.08 560.157,253.895Z" style="fill:rgb(255,102,0);"/>
            </g>
            <g transform="matrix(1.02174,0,0,-1.02174,-14.2178,1111.72)">
                <path d="M513.927,270.137L394.313,477.505L408.464,477.505L513.927,292.004L619.39,477.505L633.541,477.505L513.927,270.137ZM513.927,317.64L422.593,477.505L448.635,477.505L513.927,364.761L579.219,477.505L605.261,477.505L513.927,317.64ZM350.871,603.044L223.703,822.685L295.533,822.685L277.781,792.052L268.346,792.013L375.934,603.044L350.871,603.044ZM676.983,603.044L651.92,603.044L759.508,792.013L750.073,792.052L732.321,822.685L804.152,822.685L676.983,603.044Z" style="fill:rgb(255,102,0);"/>
            </g>
            <g transform="matrix(1.02144,0,0,0.934898,-71.7601,-44.9528)">
                <path d="M566.519,297.188L566.519,297.203C565.855,297.196 565.191,297.193 564.526,297.193C475.127,297.193 399.961,360.411 378.956,445.746L378.583,445.732L342.433,372.781L360.343,338.941C360.343,338.941 383.645,343.823 395.295,346.268C406.627,331.661 419.75,318.537 434.357,307.206C431.913,295.556 427.03,272.254 427.03,272.254L459.582,253.46C459.582,253.46 477.321,269.339 486.188,277.281C503.305,270.297 521.232,265.493 539.547,262.984C543.256,251.672 550.678,229.051 550.678,229.051L589.289,229.051C589.289,229.051 596.712,251.672 600.42,262.984C618.736,265.493 636.663,270.297 653.779,277.281C662.647,269.339 680.386,253.46 680.386,253.46L712.937,272.254C712.937,272.254 708.055,295.556 705.61,307.206C720.217,318.537 733.341,331.661 744.672,346.268C756.322,343.823 779.624,338.941 779.624,338.941L797.534,372.781L761.012,445.746C740.007,360.411 664.84,297.193 575.442,297.193C574.777,297.193 574.112,297.196 573.448,297.203L573.448,297.188L566.519,297.188Z" style="fill:rgb(255,102,0);"/>
            </g>
            <g transform="matrix(0.605663,0,0,0.396062,135.208,257.085)">
                <path d="M491.267,613.325L461.866,591.964L543.273,591.964L535.499,538.467L583.976,562.392L597.468,613.325L491.267,613.325ZM636.097,613.325L649.147,562.392L697.624,538.467L689.85,591.964L771.256,591.964L741.856,613.325L636.097,613.325Z" style="fill:rgb(255,102,0);"/>
            </g>
            <g transform="matrix(-1,0,0,1,1021.6,36.6341)">
                <path d="M521.337,361.32L521.337,400.925L534.594,400.925L534.594,361.287L539.915,361.274L539.915,400.925L545.56,400.925L545.56,361.26L554.587,361.238L554.73,401.425L517.613,422.2L517.182,463.366L508.636,463.366L505.96,422.031L469.733,401.257L470.315,361.447L521.337,361.32Z" style="fill:rgb(255,102,0);"/>
            </g>
        </g>
    </g>
    <defs>
        <linearGradient id="_Linear1" x1="0" y1="0" x2="1" y2="0" gradientUnits="userSpaceOnUse" gradientTransform="matrix(-36.6574,837.121,-837.121,-36.6574,507.155,152.688)"><stop offset="0" style="stop-color:rgb(64,64,65);stop-opacity:1"/><stop offset="0.64" style="stop-color:rgb(60,61,61);stop-opacity:1"/><stop offset="1" style="stop-color:rgb(40,41,41);stop-opacity:1"/></linearGradient>
    </defs>
</svg>
